PathFileType	3	(X/Y/Z)	C:\Users\koon_\Desktop\
DataRate	CameraRate	NumFrames	NumMarkers	Units	OrigDataRate	OrigDataStartFrame	OrigNumFrames
100.0	100.0	9	27	mm	100.0	1655	3309	
Frame#	Time	get:LFHD			get:RFHD			get:LBHD			get:RBHD			get:C7			get:T10			get:CLAV			get:STRN			get:RBAK			get:LSHO			get:LUPA			get:LELB			get:LFRA			get:LWRA			get:LWRB			get:LFIN			get:RSHO			get:RUPA			get:RELB			get:RFRA			get:RWRA			get:RWRB			get:RFIN			get:LASI			get:RASI			get:LPSI			get:RPSI			
		X1	Y1	Z1	X2	Y2	Z2	X3	Y3	Z3	X4	Y4	Z4	X5	Y5	Z5	X6	Y6	Z6	X7	Y7	Z7	X8	Y8	Z8	X9	Y9	Z9	X10	Y10	Z10	X11	Y11	Z11	X12	Y12	Z12	X13	Y13	Z13	X14	Y14	Z14	X15	Y15	Z15	X16	Y16	Z16	X17	Y17	Z17	X18	Y18	Z18	X19	Y19	Z19	X20	Y20	Z20	X21	Y21	Z21	X22	Y22	Z22	X23	Y23	Z23	X24	Y24	Z24	X25	Y25	Z25	X26	Y26	Z26	X27	Y27	Z27	
1655	16.54	87.42144	1560.3481	-61.150589	-53.806904	1557.8649	-62.288162	64.887489	1553.4446	-221.88676	-64.495819	1526.8922	-226.41432	14.294928	1344.6598	-224.47037	1.9419724	1143.1344	-261.92664	19.037165	1265.2609	-25.552197	20.453564	1074.2102	9.6542931	-83.655418	1274.5835	-230.27631	123.87611	1351.3304	-130.22537	226.5705	1320.6478	-56.452316	304.75125	1282.8458	91.143883	186.10942	1332.2496	41.270706	104.54127	1346.2241	23.660801	122.96275	1402.3547	84.478355	74.316582	1432.3063	1.6511434	-92.389664	1349.7863	-115.53228	-181.25258	1258.9567	44.065884	-244.18863	1192.3674	130.16992	-144.02545	1187.4543	148.68321	-34.074287	1095.2618	204.72807	-78.686745	1095.8186	273.03049	26.274008	1103.734	272.76764	145.43312	894.69836	-28.417562	-120.85987	878.62225	-21.600048	47.457752	947.62097	-243.53026	-42.426476	945.05042	-242.61143
1656	16.55	87.511436	1560.3595	-61.202255	-53.712288	1557.9626	-62.360458	64.977119	1553.2404	-221.89409	-64.458595	1526.7899	-226.44586	14.519596	1344.7109	-224.21153	2.3520334	1143.1792	-261.90689	19.211189	1265.1454	-26.01173	20.044254	1074.0096	9.3758812	-83.284264	1274.4889	-230.37936	123.81738	1351.3771	-129.66565	226.14362	1320.7939	-55.446041	303.51193	1282.6783	92.672127	184.10524	1333.7074	45.897686	102.98762	1348.9714	28.856014	122.51455	1403.9933	90.348656	72.972054	1435.5454	8.7727098	-92.5373	1349.6433	-115.61028	-182.71382	1257.4027	43.060009	-246.23834	1190.3145	128.39041	-145.75157	1185.1765	145.11839	-34.063854	1092.7198	198.67824	-77.978317	1092.7042	267.40393	27.007652	1100.3545	265.04547	145.55811	894.69788	-28.493414	-120.71593	878.59924	-21.563625	47.459007	947.5752	-243.45171	-42.382759	945.04901	-242.61246
1657	16.56	87.609573	1560.3721	-61.219879	-53.628345	1558.0491	-62.346554	65.048508	1553.0869	-221.93646	-64.399551	1526.7217	-226.45175	14.807414	1344.7783	-224.02983	2.7816505	1143.1981	-261.90152	18.898676	1265.0686	-25.562586	20.382816	1073.7229	9.6546669	-82.939545	1274.4294	-230.50945	123.80606	1351.421	-129.1423	225.61066	1320.9564	-54.489216	302.26724	1282.6381	94.349495	182.87581	1335.7659	49.831993	101.09578	1351.6504	34.837795	121.781	1405.1913	97.071442	71.334633	1438.7521	16.565876	-92.662018	1349.5035	-115.73029	-184.23767	1256.1896	42.351563	-248.362	1188.5941	126.6482	-147.52956	1183.4003	141.51929	-35.507122	1090.698	191.23366	-77.241592	1090.0291	261.56821	27.740042	1097.6892	257.05713	145.66644	894.71808	-28.606295	-120.6043	878.57813	-21.56756	47.511864	947.60931	-243.57245	-42.306587	945.04877	-242.62071
1658	16.57	87.696274	1560.3872	-61.228252	-53.523857	1558.1079	-62.32378	65.118942	1552.9653	-221.93883	-64.327087	1526.6464	-226.44324	15.184345	1344.8167	-223.86351	3.246763	1143.2413	-261.9259	18.562214	1265.0817	-25.124405	20.778589	1073.9015	9.7754574	-82.571495	1274.3596	-230.59605	123.7704	1351.4688	-128.70169	225.11041	1321.1067	-53.565422	300.87741	1282.6389	95.923889	180.95811	1337.6521	54.567993	98.662689	1354.0186	41.673122	120.92047	1406.4323	104.249	69.081635	1441.7695	25.503136	-92.748497	1349.4175	-115.979	-185.75291	1255.1906	41.731365	-250.50563	1187.1859	124.90233	-149.39603	1181.9976	138.03195	-36.06514	1089.264	184.31235	-76.362968	1087.7538	255.45555	28.462515	1095.7756	248.73375	145.81255	894.72705	-28.714823	-120.46667	878.59766	-21.572311	47.541336	947.57678	-243.58888	-42.238182	945.04895	-242.61908
1659	16.58	87.760948	1560.3934	-61.194141	-53.438824	1558.149	-62.336685	65.220627	1552.8999	-221.89796	-64.255211	1526.5621	-226.30727	15.517062	1344.865	-223.69937	3.6879761	1143.3142	-261.90924	18.229679	1265.1088	-24.789846	20.564188	1073.8007	9.611721	-82.107368	1274.3086	-230.79965	123.7667	1351.5193	-128.18552	224.58806	1321.2965	-52.588081	299.37711	1282.7568	97.715836	178.8873	1339.5059	59.57341	96.490372	1356.4856	48.563133	119.81614	1407.3492	111.91922	66.537117	1444.6997	35.058945	-92.742485	1349.3163	-116.10711	-187.13582	1254.3004	40.521584	-252.74286	1186.1111	123.12685	-151.37537	1181.1244	134.5128	-36.631165	1088.6919	177.08524	-75.38517	1085.8042	248.17941	29.248894	1094.583	240.38734	145.93701	894.74872	-28.824993	-120.33407	878.57062	-21.42452	47.642429	947.56366	-243.57837	-42.117249	945.02979	-242.62515
1660	16.59	87.817017	1560.4092	-61.131062	-53.397095	1558.1318	-62.302521	65.290672	1552.8129	-221.84241	-64.147263	1526.4385	-226.20949	15.889006	1344.8992	-223.57921	4.1702156	1143.4041	-262.01535	19.093872	1264.0988	-29.20714	20.385326	1073.7178	9.4881048	-81.661667	1274.2607	-230.92346	123.8026	1351.5574	-127.68231	224.06009	1321.4849	-51.664585	297.81824	1282.8954	99.496849	176.58908	1341.3116	65.365601	93.905296	1358.5942	56.258713	118.58072	1407.999	120.26692	63.720592	1447.2048	45.245502	-92.749298	1349.2446	-116.23306	-188.5363	1253.6545	39.630173	-254.93491	1185.3551	121.45354	-153.36166	1180.6537	130.9402	-37.134594	1088.6421	169.9319	-74.419312	1084.8792	242.68393	30.222296	1093.9634	231.60744	146.07872	894.75256	-28.899561	-120.21181	878.55121	-21.473808	47.721424	947.60986	-243.7374	-42.054127	945.02484	-242.67358
1661	16.6	87.877563	1560.4188	-61.051525	-53.334377	1558.0977	-62.319836	65.415916	1552.7874	-221.78264	-64.025215	1526.3628	-226.15656	16.271555	1344.9279	-223.44395	4.6187253	1143.4104	-261.95639	18.817877	1264.0378	-29.230402	20.207384	1073.6864	9.4080362	-81.212074	1274.203	-231.15959	123.80851	1351.5829	-127.23255	223.48326	1321.694	-50.817917	296.1947	1283.1464	101.36395	174.07301	1342.9795	71.375069	91.3629	1360.5756	64.15313	117.23599	1408.2339	129.02994	60.754501	1449.2383	56.053619	-92.689713	1349.2136	-116.62332	-189.85809	1253.1528	38.577267	-257.02689	1184.9315	119.71474	-155.29936	1180.583	127.32133	-37.659164	1089.2229	162.57474	-73.241875	1084.5199	236.00737	31.066969	1094.2168	223.00537	146.23885	894.73828	-28.986893	-120.03212	878.55457	-21.344952	47.817368	947.61774	-243.73709	-41.936119	945.0459	-242.66629
1662	16.61	87.940056	1560.4077	-60.939335	-53.292122	1558.0967	-62.282887	65.56958	1552.7719	-221.67816	-63.880287	1526.3248	-226.08797	16.671455	1344.9329	-223.32724	5.0705838	1143.4283	-261.95193	17.174242	1265.0853	-23.800817	20.027061	1073.6395	9.3236589	-80.734993	1274.1687	-231.41258	123.80933	1351.6603	-126.73514	222.86647	1321.9558	-49.830978	294.54974	1283.4818	103.36452	171.41418	1344.4454	77.633736	88.639008	1362.1593	72.42067	115.79148	1408.1589	138.091	57.358952	1450.7506	67.740067	-92.602867	1349.173	-117.07387	-191.20229	1252.859	37.494728	-258.95676	1184.8718	118.12295	-157.14838	1180.8859	123.68323	-38.163235	1090.3245	155.26265	-71.981148	1084.8059	229.52937	32.001133	1095.1659	214.18588	146.38583	894.76752	-29.092926	-119.93467	878.56061	-21.424406	47.903107	947.67188	-243.83426	-41.838566	945.0343	-242.65456
1663	16.62	88.012466	1560.3636	-60.859715	-53.221355	1558.0564	-62.191116	65.706802	1552.7595	-221.58339	-63.761406	1526.3302	-225.99823	17.117706	1344.9672	-223.23868	5.528698	1143.451	-261.97046	18.278797	1263.9147	-29.423798	19.242325	1073.2218	9.0232391	-80.250626	1274.1462	-231.78716	123.75933	1351.6975	-126.30041	222.19044	1322.2517	-48.818455	292.80838	1283.9142	105.57026	168.65317	1345.7229	84.261429	85.802925	1363.3744	81.203079	114.18456	1407.6364	147.49426	54.18943	1451.9397	79.441673	-92.527695	1349.088	-117.34898	-192.48071	1252.801	36.429939	-260.97009	1185.1726	115.84649	-158.92337	1181.4752	119.86916	-38.673515	1091.9241	147.93752	-70.599152	1085.7188	222.71738	32.939796	1097.0436	205.17752	146.52393	894.77155	-29.126995	-119.79475	878.56818	-21.440071	48.010994	947.63336	-243.80972	-41.7281	945.0321	-242.64603
